<svg width="150" height="58" viewBox="0 0 150 58" fill="none" xmlns="http://www.w3.org/2000/svg">
<path d="M60.8053 45.02L60.1158 44.502L60.1072 44.4933L60.8053 45.02Z" fill="url(#paint0_linear_65_862)"/>
<path d="M31.9478 35.4893L32.6071 35.6059H32.6028L31.9478 35.4893Z" fill="url(#paint1_linear_65_862)"/>
<path d="M16.4006 34.5525L16.6936 34.7727L16.4006 34.5525Z" fill="url(#paint2_linear_65_862)"/>
<path d="M44.7702 28.2323H44.7573L44.7228 28.2409C44.6926 28.2453 44.6539 28.2582 44.6022 28.2668C44.4944 28.2884 44.3436 28.323 44.1497 28.3618C43.7619 28.4438 43.206 28.5561 42.5467 28.6769C41.2325 28.923 39.4701 29.2252 37.7292 29.4281C36.0271 29.6266 34.1958 29.7475 32.7996 29.5705C32.1446 29.4885 31.3044 29.3115 30.6408 28.8237C30.2745 28.5517 29.9125 28.1503 29.7273 27.5848C29.6712 27.4078 29.6411 27.2394 29.6238 27.0668C28.5121 27.7747 27.1806 28.133 25.7931 28.0165C23.3154 27.8092 21.0531 27.3042 18.946 26.2293C18.8038 26.4538 18.6142 26.648 18.3815 26.7905C14.8136 28.9791 10.0822 30.1058 5.88088 30.503C5.75161 30.5159 5.62665 30.5159 5.49737 30.5202C3.40317 32.247 2.21386 34.4529 1.84328 37.22C0.813418 44.986 7.458 47.7013 23.38 46.989C38.6643 46.307 46.1448 43.1945 47.6271 36.0717C46.8084 35.0486 46.3775 33.814 46.2224 32.4412C46.106 31.4311 46.1319 30.3173 46.2568 29.1C45.938 28.7503 45.5803 28.4222 45.1666 28.1201C45.046 28.1546 44.9253 28.1848 44.809 28.215C44.7961 28.215 44.7875 28.2193 44.7745 28.2237M33.2736 35.7134C33.1745 36.2789 32.6617 36.7063 32.0369 36.7495C26.7195 37.1164 20.7816 36.62 16.1796 35.3249C15.5806 35.1565 15.3436 34.4961 15.6969 34.0212C15.9641 33.6629 16.576 33.5075 17.0241 33.6327C21.5228 34.9364 27.4219 35.3378 32.6186 34.945C33.0926 34.9062 33.3512 35.286 33.2736 35.7177V35.7134Z" fill="url(#paint3_linear_65_862)"/>
<path d="M88.8874 39.1069H88.8745L88.8443 39.1155C88.8184 39.1198 88.7797 39.1285 88.728 39.1371C88.6288 39.1544 88.4823 39.1846 88.3014 39.2148C87.9351 39.2795 87.418 39.3702 86.7975 39.4695C85.5651 39.6637 83.9104 39.8969 82.2773 40.0264C80.6829 40.1516 78.9464 40.199 77.6192 39.953C76.9857 39.8364 76.1756 39.6076 75.5508 39.0637C75.2061 38.7658 74.9002 38.3514 74.7493 37.8118C74.633 37.3974 74.6373 36.9959 74.7106 36.6247C70.1903 38.4982 64.5498 39.2795 59.7452 39.2795C57.2761 39.2795 55.1732 39.1759 53.4195 38.8953C49.0845 40.7948 46.7921 43.6396 46.2535 47.6974C45.2236 55.4634 51.8682 58.1787 67.7902 57.4665C83.7079 56.7542 91.1626 53.4129 92.1968 45.6469C92.5975 42.6424 91.8391 40.3933 89.844 38.809C89.5553 38.9213 89.2623 39.0162 88.9693 39.0896C88.9434 39.0982 88.9132 39.1026 88.8874 39.1069ZM77.6795 46.1908C77.5804 46.7563 77.0676 47.1837 76.4428 47.2269C71.1254 47.5938 65.1875 47.0974 60.5854 45.8023C59.9865 45.634 59.7495 44.9735 60.1028 44.4986C60.37 44.1403 60.8526 43.9849 61.3007 44.1101C65.7994 45.4138 71.6985 45.8153 76.8953 45.4224C77.3692 45.3836 77.7571 45.7635 77.6795 46.1952V46.1908Z" fill="url(#paint4_linear_65_862)"/>
<path d="M145.542 1.81783C135.514 2.6812 133.338 2.85387 131.899 7.99957C131.714 8.66005 131.533 9.3119 131.348 9.96374C132.205 13.8057 131.8 18.7831 130.49 24.8655C128.702 33.1539 125.811 38.986 121.79 42.746C121.648 42.8798 121.502 43.005 121.355 43.1302C121.351 44.1792 122.234 45.1289 123.518 45.28C127.215 45.7203 132.805 42.3111 134.949 41.3101C143.078 37.5169 147.735 14.177 149.157 4.8828C149.446 3.00496 147.748 1.62789 145.542 1.81783Z" fill="url(#paint5_linear_65_862)"/>
<path d="M104.182 17.241C104.066 17.9144 103.863 18.631 103.665 19.2526C103.463 19.8829 103.243 20.4656 103.079 20.8844C102.997 21.0959 102.924 21.2686 102.877 21.3938C102.851 21.4542 102.829 21.5017 102.816 21.5362L102.803 21.5664C102.497 22.4514 101.959 23.1248 101.321 23.6342C101.584 23.8673 101.855 24.1954 102.006 24.6444C102.278 25.443 102.179 26.3668 102.079 27.0014C101.963 27.7223 101.765 28.495 101.562 29.1728C101.36 29.8591 101.14 30.4937 100.972 30.9513C100.89 31.1801 100.817 31.37 100.765 31.5039C100.739 31.5686 100.718 31.6247 100.705 31.6593L100.692 31.6895C100.015 33.8565 98.0547 34.8451 96.525 35.3027C95.4305 35.6265 94.3101 35.7646 93.4052 35.8164C93.3147 35.9804 93.2156 36.1402 93.1079 36.2956C93.9827 43.6429 99.076 46.4618 106.565 46.4618C117.17 46.4618 124.771 40.8714 128.266 24.6703C131.773 8.41298 128.136 2.37801 115.968 2.87445C109.319 3.14641 103.536 7.21721 99.4422 13.209C99.5844 13.1917 99.7223 13.1745 99.8602 13.1615C100.657 13.0968 101.442 13.1615 102.11 13.3515C102.441 13.4464 102.799 13.5846 103.126 13.7961C103.432 13.9947 103.863 14.3573 104.087 14.9487C104.389 15.7473 104.281 16.6582 104.178 17.2366L104.182 17.241ZM112.736 15.2423C113.024 14.6379 113.809 14.4825 114.296 14.9271C114.658 15.2595 114.765 15.7948 114.546 16.2438C112.344 20.8024 110.939 26.9668 110.551 32.501C110.517 33.0061 110.03 33.3558 109.547 33.2133C108.918 33.0277 108.517 32.4233 108.569 31.7585C109 26.0991 110.521 19.9045 112.736 15.2423Z" fill="url(#paint6_linear_65_862)"/>
<path d="M102.663 15.3425C102.327 14.4576 98.5007 14.0388 96.4883 16.5685C95.9195 17.2851 95.3594 18.6881 94.9112 20.0479L95.2947 17.842L95.8894 14.4144C96.0143 13.6762 95.9066 12.2128 94.5062 12.2128L86.1638 13.1625C81.8548 13.3266 80.2906 15.9339 80.0277 18.4463C79.8898 19.7371 79.7218 21.1876 79.502 22.7546C76.5158 24.0712 70.858 25.5217 67.3289 25.5217C65.7431 25.5217 64.8727 24.6669 65.114 23.2467C65.1442 23.1258 66.1956 17.8636 67.4151 15.0317C67.7641 14.2158 67.6219 13.2316 66.9842 12.6143C66.6179 12.2603 65.6354 12.2603 65.3079 12.2905L58.3445 13.3222L57.836 15.2217H57.8317C57.8188 15.2735 57.8058 15.3296 57.7886 15.3814C57.7972 15.3598 57.8015 15.3425 57.8058 15.3296C57.8058 15.3209 57.8058 15.3166 57.8058 15.3253C57.8058 15.3296 57.7972 15.3468 57.7929 15.3684C57.7886 15.3857 57.78 15.4116 57.7671 15.4418V15.4591C56.2761 19.5471 52.8116 20.6652 50.5882 20.9544L50.4804 21.5718L50.1572 23.4194C49.9246 24.7662 49.2567 25.7591 48.4078 26.493L48.3173 27.011C46.8263 35.5325 48.9593 37.5312 59.7492 37.5312C65.8853 37.5312 73.1547 36.2189 77.4767 33.1712C77.1708 34.3669 76.8347 35.58 76.4555 36.8146C75.4903 39.9616 88.5553 37.393 88.5553 37.393C90.2531 36.97 91.9164 35.6059 92.4723 33.8748C94.2089 33.8791 98.5007 33.6115 99.2677 30.84C99.2677 30.84 101.043 26.398 100.56 24.9778C100.224 23.9935 96.3634 23.4841 94.3338 26.2426C94.0882 26.5836 93.8383 27.0628 93.6013 27.6197L94.3166 23.5014C95.717 23.5187 100.582 23.3805 101.396 20.6652C101.396 20.6652 103.15 16.616 102.668 15.3339" fill="url(#paint7_linear_65_862)"/>
<path d="M35.1487 8.93568C34.9074 11.2063 34.5239 13.8008 33.9293 16.7017C33.8819 17.2543 33.7784 17.8629 33.6492 18.463C33.3217 20.0257 32.7744 21.9122 32.2832 23.4921C32.0074 24.4807 31.7144 25.4865 31.3912 26.5226C30.4217 29.6393 44.3917 26.5226 44.3917 26.5226C46.2747 26.0607 48.0889 25.085 48.4336 23.1122L48.7568 21.2646L49.1015 19.2918C50.6355 19.3048 54.6472 18.9292 56.1296 14.8368C56.1382 14.8109 56.1468 14.785 56.1554 14.7634L57.0646 11.3661C59.3053 4.09216 51.5318 7.06216 50.9156 9.28966L50.7088 10.1271L51.1224 7.76149L51.7171 4.36412C51.8464 3.63026 51.73 1.32506 49.6703 1.80423L40.3885 2.91366C37.174 3.61299 35.4073 6.44485 35.1444 8.93136L35.1487 8.93568Z" fill="url(#paint8_linear_65_862)"/>
<path d="M11.4841 7.44215L11.441 7.68389C10.2948 14.2067 6.83032 14.7204 4.55944 16.991C3.22794 18.3293 1.41813 22.9051 1.78441 25.655C2.03864 27.5846 3.7795 28.9574 5.71427 28.7761C9.77773 28.3919 14.2161 27.3083 17.4694 25.3139C16.069 24.2175 14.9443 23.2332 13.9877 22.1195C13.643 21.718 13.7076 21.1093 14.1299 20.7942C14.4574 20.5524 14.9141 20.6042 15.177 20.9194C18.3054 24.7053 21.688 25.9442 25.9324 26.2939C28.0137 26.4665 29.9398 25.1629 30.5647 23.1641C31.5687 19.961 32.7881 15.519 31.9134 15.3247C28.2852 14.5088 27.1864 13.1015 28.1387 7.69253L28.6256 4.94269C28.8453 3.69512 27.85 2.56842 26.5874 2.62885L16.362 3.13824C13.9274 3.25911 11.9021 5.05061 11.4798 7.45078L11.4841 7.44215Z" fill="url(#paint9_linear_65_862)"/>
<defs>
<linearGradient id="paint0_linear_65_862" x1="60.3813" y1="44.9279" x2="59.9869" y2="44.6234" gradientUnits="userSpaceOnUse">
<stop/>
<stop offset="1" stop-color="#747474"/>
</linearGradient>
<linearGradient id="paint1_linear_65_862" x1="32.2067" y1="35.5855" x2="32.1566" y2="35.4203" gradientUnits="userSpaceOnUse">
<stop/>
<stop offset="1" stop-color="#747474"/>
</linearGradient>
<linearGradient id="paint2_linear_65_862" x1="16.5156" y1="34.7342" x2="16.3506" y2="34.6063" gradientUnits="userSpaceOnUse">
<stop/>
<stop offset="1" stop-color="#747474"/>
</linearGradient>
<linearGradient id="paint3_linear_65_862" x1="19.7562" y1="43.45" x2="4.08672" y2="23.3794" gradientUnits="userSpaceOnUse">
<stop/>
<stop offset="1" stop-color="#747474"/>
</linearGradient>
<linearGradient id="paint4_linear_65_862" x1="64.2697" y1="53.9131" x2="48.5454" y2="33.7363" gradientUnits="userSpaceOnUse">
<stop/>
<stop offset="1" stop-color="#747474"/>
</linearGradient>
<linearGradient id="paint5_linear_65_862" x1="132.283" y1="37.7112" x2="110.244" y2="29.4998" gradientUnits="userSpaceOnUse">
<stop/>
<stop offset="1" stop-color="#747474"/>
</linearGradient>
<linearGradient id="paint6_linear_65_862" x1="107.411" y1="38.837" x2="80.8495" y2="25.9136" gradientUnits="userSpaceOnUse">
<stop/>
<stop offset="1" stop-color="#747474"/>
</linearGradient>
<linearGradient id="paint7_linear_65_862" x1="69.4319" y1="33.8061" x2="49.5765" y2="9.55862" gradientUnits="userSpaceOnUse">
<stop/>
<stop offset="1" stop-color="#747474"/>
</linearGradient>
<linearGradient id="paint8_linear_65_862" x1="41.6006" y1="23.3331" x2="23.9965" y2="13.0949" gradientUnits="userSpaceOnUse">
<stop/>
<stop offset="1" stop-color="#747474"/>
</linearGradient>
<linearGradient id="paint9_linear_65_862" x1="13.7022" y1="24.2179" x2="-5.11594" y2="11.4496" gradientUnits="userSpaceOnUse">
<stop/>
<stop offset="1" stop-color="#747474"/>
</linearGradient>
</defs>
</svg>
