<svg width="24" height="24" viewBox="0 0 24 24" fill="none" xmlns="http://www.w3.org/2000/svg">
<path d="M8.5 19.1017H8C4 19.1017 2 18.1545 2 13.4187V8.68295C2 4.89432 4 3 8 3H16C20 3 22 4.89432 22 8.68295V13.4187C22 17.2074 20 19.1017 16 19.1017H15.5C15.19 19.1017 14.89 19.2438 14.7 19.4806L13.2 21.3749C12.54 22.2084 11.46 22.2084 10.8 21.3749L9.3 19.4806C9.14 19.2722 8.77 19.1017 8.5 19.1017Z" stroke="black" stroke-width="2" stroke-miterlimit="10" stroke-linecap="round" stroke-linejoin="round"/>
<path d="M14.7801 6.80005C15.4538 6.80005 16 7.34622 16 8.01995V13.9896C16 14.741 15.3909 15.35 14.6395 15.35C14.2107 15.35 13.807 15.1479 13.5502 14.8045L10.5168 10.7497C10.5088 10.7389 10.4961 10.7326 10.4826 10.7326C10.459 10.7326 10.4398 10.7517 10.4398 10.7754V14.1301C10.4398 14.8039 9.89364 15.35 9.2199 15.35C8.54617 15.35 8 14.8039 8 14.1301V8.18345C8 7.41942 8.61937 6.80005 9.3834 6.80005C9.82174 6.80005 10.2341 7.00778 10.495 7.36001L13.4678 11.3732C13.4774 11.3862 13.4927 11.3939 13.509 11.3939C13.5373 11.3939 13.5602 11.371 13.5602 11.3427V8.01995C13.5602 7.34622 14.1064 6.80005 14.7801 6.80005Z" fill="black"/>
</svg>
