<svg width="654" height="606" viewBox="0 0 654 606" fill="none" xmlns="http://www.w3.org/2000/svg">
<path fill-rule="evenodd" clip-rule="evenodd" d="M377.349 445.67C363.54 466.687 330.488 572.831 415.217 628.285C499.946 683.741 551.8 575.187 565.575 536.979C579.352 498.774 514.099 396.512 476.796 391.801C439.495 387.09 401.675 408.648 377.349 445.67Z" fill="black"/>
<path fill-rule="evenodd" clip-rule="evenodd" d="M153.624 432.803C127.599 399.187 55.405 304.034 55.3184 282.778C55.2511 266.559 151.935 253.009 193.275 255.137" fill="black"/>
<path fill-rule="evenodd" clip-rule="evenodd" d="M301.993 175.843C312.321 135.938 354.249 48.1427 369.781 53.0618C390.143 59.5088 459.785 156.577 484.224 191.348" fill="black"/>
<path d="M430.911 461.985C556.322 370.307 555.882 297.719 528.519 244.969C501.154 192.22 464.565 170.017 399.667 158.443C334.768 146.871 300.985 173.746 247.22 213.052C193.453 252.356 157.58 276.4 149.259 341.498C140.937 406.595 151.278 447.989 193.66 489.76C236.044 531.529 305.5 553.664 430.911 461.985Z" fill="black"/>
<path d="M250.556 208.992C227.717 206.352 212.965 199.396 207.992 179.102C204.163 164.83 230.304 155.079 232.18 161.118C237.914 179.577 217.737 179.251 208.734 166.142C200.573 154.259 220.938 138.262 220.901 144.692" stroke="black" stroke-width="2.75286" stroke-linecap="round" stroke-linejoin="round"/>
<path fill-rule="evenodd" clip-rule="evenodd" d="M337.74 439.457C347.629 441.483 358.993 438.705 368.135 432.023C378.123 424.718 384.241 413.897 384.503 403.075C384.527 402.14 384.984 401.268 385.741 400.712C386.434 400.206 387.311 400.018 388.147 400.189C388.222 400.205 388.299 400.222 388.375 400.246C389.112 400.455 389.861 400.639 390.622 400.795C400.515 402.822 411.879 400.043 421.022 393.359C436.992 381.683 442.174 361.595 432.571 348.579C428.826 343.501 423.297 340.093 416.586 338.718C407.587 336.875 397.442 338.949 388.753 344.415C388.573 344.526 388.387 344.619 388.195 344.691L333.336 384.792C325.483 390.534 320 398.404 317.866 406.974C315.783 415.343 317.162 423.377 321.75 429.594C325.499 434.672 331.025 438.082 337.74 439.457Z" fill="white"/>
<path d="M417.198 335.759C424.358 337.226 430.69 340.926 435.018 346.793C445.631 361.174 440.167 383.111 422.818 395.794C412.546 403.304 400.408 405.882 390.014 403.753C389.176 403.581 388.35 403.379 387.537 403.147C387.265 414.436 381.033 426.339 369.932 434.454C359.659 441.963 347.524 444.546 337.129 442.417C329.967 440.95 323.635 437.248 319.305 431.382C308.696 417.003 314.158 395.064 331.507 382.384C331.611 382.306 331.716 382.231 331.818 382.155L384.32 343.775C384.346 343.757 384.368 343.739 384.395 343.722C384.419 343.703 384.444 343.685 384.468 343.667L387.066 341.768L387.133 341.86C396.778 335.794 407.715 333.817 417.198 335.759ZM415.976 341.676C407.738 339.988 398.408 341.916 390.375 346.966C390.159 347.102 389.938 347.222 389.714 347.328L388.004 348.579C387.997 348.582 387.919 348.64 387.914 348.645L335.409 387.027L335.237 387.152L335.101 387.252C327.85 392.552 322.776 399.815 320.812 407.7C318.949 415.183 320.151 422.324 324.197 427.806C327.492 432.272 332.385 435.278 338.351 436.5C347.414 438.357 357.876 435.773 366.338 429.586C375.576 422.833 381.233 412.896 381.471 403C381.516 401.13 382.43 399.385 383.945 398.279C385.334 397.263 387.084 396.887 388.758 397.23C388.911 397.261 389.062 397.299 389.212 397.342C389.872 397.53 390.552 397.696 391.235 397.836C400.3 399.693 410.765 397.109 419.226 390.925C426.477 385.625 431.551 378.362 433.513 370.476C435.376 362.993 434.174 355.852 430.129 350.368C426.834 345.902 421.94 342.897 415.976 341.676Z" fill="black"/>
<path d="M380.299 364.534L380.134 364.936L379.893 365.3L377.539 368.84L377.539 368.842C376.697 370.109 376.231 371.248 376.044 372.16L375.26 376.01L375.177 376.414L375.019 376.799C374.226 378.719 372.813 380.269 371.322 381.359C369.834 382.448 367.922 383.327 365.846 383.506L365.43 383.54L365.018 383.499L361.091 383.091C360.151 382.993 358.916 383.095 357.477 383.512L357.466 383.516L353.363 384.694L352.948 384.814L352.517 384.851C348.903 385.153 345.54 383.155 344.595 379.582C343.696 376.173 345.374 372.855 348.174 370.808L348.181 370.801L368.135 356.216C370.929 354.172 374.611 353.566 377.613 355.441C380.757 357.406 381.661 361.197 380.299 364.534Z" fill="#FFB8B8"/>
<path d="M380.299 364.534L380.134 364.936L379.893 365.3L377.539 368.84L377.539 368.842C376.697 370.109 376.231 371.248 376.044 372.16L375.26 376.01L375.177 376.414L375.019 376.799C374.226 378.719 372.813 380.269 371.322 381.359C369.834 382.448 367.922 383.327 365.846 383.506L365.43 383.54L365.018 383.499L361.091 383.091C360.151 382.993 358.916 383.095 357.477 383.512L357.466 383.516L353.363 384.694L352.948 384.814L352.517 384.851C348.903 385.153 345.54 383.155 344.595 379.582C343.696 376.173 345.374 372.855 348.174 370.808L348.181 370.801L368.135 356.216C370.929 354.172 374.611 353.566 377.613 355.441C380.757 357.406 381.661 361.197 380.299 364.534Z" stroke="black" stroke-width="2.75286" stroke-linecap="round" stroke-linejoin="round"/>
<path fill-rule="evenodd" clip-rule="evenodd" d="M444.518 298.454C463.039 284.914 473.871 252.992 465.051 241.039C456.231 229.083 421.658 228.834 403.136 242.374C384.613 255.914 381.831 283.471 390.654 295.424C399.474 307.377 425.996 311.995 444.518 298.454Z" fill="#8FFFAF"/>
<path fill-rule="evenodd" clip-rule="evenodd" d="M269.984 425.931C251.46 439.471 217.617 440.21 208.794 428.256C199.974 416.301 210.078 383.393 228.602 369.851C247.123 356.313 274.373 361.914 283.194 373.869C292.014 385.822 288.505 412.393 269.984 425.931Z" fill="#8FFFAF"/>
<path fill-rule="evenodd" clip-rule="evenodd" d="M260.413 420.597C267.259 415.592 262.888 398.083 250.643 381.49C245.871 375.023 240.609 369.649 235.557 365.8C233.15 366.888 230.822 368.23 228.618 369.841C223.929 373.271 219.78 377.94 216.339 383.196C218.546 388.44 221.755 394.082 225.841 399.619C238.086 416.214 253.563 425.603 260.413 420.597Z" fill="black"/>
<path fill-rule="evenodd" clip-rule="evenodd" d="M442.277 287.757C435.428 292.763 419.953 283.373 407.708 266.779C402.938 260.313 399.361 253.71 397.178 247.758C398.945 245.799 400.926 243.987 403.13 242.374C407.82 238.946 413.541 236.403 419.609 234.709C423.974 238.374 428.422 243.111 432.507 248.649C444.753 265.243 449.127 282.751 442.277 287.757Z" fill="black"/>
<path d="M275.65 466.61C271.251 462.425 266.878 458.258 262.217 454.189C276.037 454.498 289.268 455.839 301.497 457.574C296.109 452.051 288.953 447.317 282.286 442.409C293.811 441.001 304.305 442.281 314.226 442.695" stroke="#FFB8B8" stroke-width="2.57209" stroke-miterlimit="1.5" stroke-linecap="round" stroke-linejoin="round"/>
<path fill-rule="evenodd" clip-rule="evenodd" d="M399.424 530.013C383.348 522.323 369.814 541.529 366.477 557.696C363.14 573.862 369.128 591.207 381.277 592.965C393.426 594.72 407.588 590.295 412.919 571.606C418.249 552.917 410.143 535.14 399.424 530.013Z" fill="white"/>
<path d="M399.424 530.013C383.348 522.323 369.814 541.529 366.477 557.696C363.14 573.862 369.128 591.207 381.277 592.965C393.426 594.72 407.588 590.295 412.919 571.606C418.249 552.917 410.143 535.14 399.424 530.013Z" stroke="black" stroke-width="2.75286" stroke-miterlimit="10" stroke-linecap="round" stroke-linejoin="round"/>
</svg>
